<svg width="45" height="45" viewBox="0 0 45 45" fill="none" xmlns="http://www.w3.org/2000/svg">
<path fill-rule="evenodd" clip-rule="evenodd" d="M22.5186 0C10.0664 0 0 10.3125 0 23.0705C0 33.2686 6.44989 41.9011 15.3976 44.9564C16.5163 45.1861 16.9261 44.46 16.9261 43.8492C16.9261 43.3144 16.8892 41.4811 16.8892 39.5709C10.6251 40.9463 9.32061 36.8208 9.32061 36.8208C8.31392 34.147 6.82233 33.4598 6.82233 33.4598C4.77208 32.0466 6.97167 32.0466 6.97167 32.0466C9.24594 32.1994 10.4393 34.4147 10.4393 34.4147C12.4522 37.9284 15.6958 36.9356 17.0007 36.3244C17.187 34.8347 17.7839 33.8034 18.4177 33.2306C13.4216 32.6958 8.16504 30.7097 8.16504 21.848C8.16504 19.327 9.05926 17.2645 10.4762 15.6605C10.2526 15.0877 9.46949 12.7191 10.7002 9.54891C10.7002 9.54891 12.6016 8.93766 16.8887 11.917C18.7242 11.412 20.6171 11.1551 22.5186 11.153C24.42 11.153 26.3582 11.4206 28.148 11.917C32.4357 8.93766 34.337 9.54891 34.337 9.54891C35.5677 12.7191 34.7841 15.0877 34.5606 15.6605C36.0149 17.2645 36.8722 19.327 36.8722 21.848C36.8722 30.7097 31.6157 32.6573 26.5822 33.2306C27.4027 33.9562 28.1107 35.3311 28.1107 37.5084C28.1107 40.6022 28.0738 43.0852 28.0738 43.8488C28.0738 44.46 28.4841 45.1861 29.6023 44.9569C38.55 41.9006 44.9999 33.2686 44.9999 23.0705C45.0368 10.3125 34.9335 0 22.5186 0Z" fill="#4A4A4A"/>
</svg>
